<svg width="883" height="380" viewBox="0 0 883 380" fill="none" xmlns="http://www.w3.org/2000/svg">
<g clip-path="url(#clip0_1999_25860)">
<path d="M364.59 60.75H333.94L349.29 10.75H323.43L327.59 0H403.31L401.73 10.76H375.87L364.59 60.75Z" fill="#E6ECEF"/>
<path d="M439.13 60.75H408.48L415.11 0H440.82L440.22 21.64H466.22L465.12 0H490.83L498.76 60.75H468.11L466.79 34H439.87L439.13 60.75Z" fill="#E6ECEF"/>
<path d="M588.21 60.75H512.84L502.63 0H565.84L569.84 10.76H531L533.71 21.64H573.79L578.34 34H536.8L539.92 46.5H582.92L588.21 60.75Z" fill="#E6ECEF"/>
<path d="M115.76 172.83L182.44 75.2197H260.71L239.9 118.3H257.09L232.91 172.83H115.76ZM204.25 91.8297L194 109H209.88L219.52 91.9097L204.25 91.8297ZM169.85 149H205.63L216.33 128.62H182.12L169.85 149Z" fill="#E6ECEF"/>
<path d="M290.94 172.83H251.17L290.8 75.2197H384.55L368.32 172.83H328.55L339.49 128.65H305.29L290.94 172.83ZM317.23 91.8297L311.68 109H344.37L348.6 91.9097L317.23 91.8297Z" fill="#E6ECEF"/>
<path d="M426.35 172.83H386.58L399.16 75.2197H492.91L503.73 172.83H464L461.62 91.8297H430.2L426.35 172.83Z" fill="#E6ECEF"/>
<path d="M561.76 172.83H522L507.53 75.2197H601.28L639.14 172.83H599.37L574.55 91.8297H543.17L561.76 172.83Z" fill="#E6ECEF"/>
<path d="M735.86 172.83H696.09L673.8 128.65H638.61L615.89 75.2197H647.72L664.8 109H697.49L677.81 75.2197H709.64L745.17 128.65H710L735.86 172.83Z" fill="#E6ECEF"/>
<path d="M0 379.88L117.87 197.48H159.64L83.31 332.62H107.55L118.44 312H143.3L199.15 197.52H240.92L185.51 333.82H159.79L149.91 356H123.31L111.7 379.88H0Z" fill="#E6ECEF"/>
<path d="M332 379.88H192.78L260.11 197.48H362.84L357.93 226.53H293.53L284.7 257.19H352.75L346.6 293.63H274.22L263 332.63H340L332 379.88Z" fill="#E6ECEF"/>
<path d="M414.65 379.88H358L382 197.48H484.76L485.7 211.21H506.57L513.5 275.34H490.1L491.28 292.58H515.37L524.81 379.88H468.19L465.88 293.63H419L414.65 379.88ZM422.34 226.53L420.81 257.19H464.9L464.08 226.53H422.34ZM484.76 197.48H505.08L506.57 211.21H485.7L484.76 197.48Z" fill="#E6ECEF"/>
<path d="M690.05 379.88H550.81L543.93 332.62H646.61L634.76 293.62H562.38L559 275.34H535.6L526.26 211.21H547.13L544.58 197.48H647.32L658.51 226.53H572.63L579.63 257.19H647.63L653.56 274.35H676.93L708.38 356H681.79L690.05 379.88ZM535.6 275.34H559L562.38 293.63H538.26L535.6 275.34ZM525.47 197.9H544.66L547.13 211.21H527.43L525.47 197.9ZM647.64 257.19H670.32L676.94 274.35H653.57L647.64 257.19ZM681.79 356H708.38L717.29 379.13H689.78L681.79 356Z" fill="#E6ECEF"/>
<path d="M882.83 379.88H743.59L666.5 197.48H769.24L787.33 226.53H722.92L738.38 257.19H806.38L829.07 293.63H756.74L776.39 332.63H853.39L882.83 379.88Z" fill="#E6ECEF"/>
<rect x="54.7656" y="138.766" width="5.46875" height="5.46875" fill="white"/>
<rect x="54.7656" y="133.844" width="5.46875" height="4.92187" fill="#64C4E2"/>
<rect x="60.2344" y="138.766" width="4.92187" height="5.46875" fill="#64C4E2"/>
<rect x="54.7656" y="144.234" width="5.46875" height="4.92187" fill="#64C4E2"/>
<rect x="49.8438" y="138.766" width="4.92187" height="5.46875" fill="#64C4E2"/>
<rect x="54.7656" y="128.922" width="5.46875" height="4.92187" fill="#64C4E2"/>
<rect x="54.7656" y="149.156" width="5.46875" height="4.92187" fill="#64C4E2"/>
<rect x="49.8438" y="144.234" width="4.92187" height="4.92187" fill="#57B1CD"/>
<rect x="49.8438" y="133.844" width="4.92187" height="4.92187" fill="#57B1CD"/>
<rect x="60.2344" y="133.844" width="4.92187" height="4.92187" fill="#57B1CD"/>
<rect x="60.2344" y="144.234" width="4.92187" height="4.92187" fill="#57B1CD"/>
<rect x="44.9219" y="138.766" width="4.92187" height="5.46875" fill="#57B1CD"/>
<rect x="44.9219" y="133.844" width="4.92187" height="4.92187" fill="#468CA2"/>
<rect x="49.8438" y="128.922" width="4.92187" height="4.92187" fill="#468CA2"/>
<rect x="60.2344" y="128.922" width="4.92187" height="4.92187" fill="#468CA2"/>
<rect x="65.1562" y="133.844" width="4.92187" height="4.92187" fill="#468CA2"/>
<rect x="65.1562" y="144.234" width="4.92187" height="4.92187" fill="#468CA2"/>
<rect x="60.2344" y="149.156" width="4.92187" height="4.92187" fill="#468CA2"/>
<rect x="49.8438" y="149.156" width="4.92187" height="4.92187" fill="#468CA2"/>
<rect x="44.9219" y="144.234" width="4.92187" height="4.92187" fill="#468CA2"/>
<rect x="54.7656" y="124" width="5.46875" height="4.92187" fill="#64C4E2"/>
<rect x="54.7656" y="154.078" width="5.46875" height="4.92187" fill="#64C4E2"/>
<rect x="40" y="138.766" width="4.92187" height="5.46875" fill="#57B1CD"/>
<rect x="70.0781" y="138.766" width="4.92187" height="5.46875" fill="#57B1CD"/>
<rect x="65.1562" y="138.766" width="4.92187" height="5.46875" fill="#57B1CD"/>
</g>
<defs>
<clipPath id="clip0_1999_25860">
<rect width="882.83" height="379.88" fill="white"/>
</clipPath>
</defs>
</svg>
